<?xml version="1.0" encoding="UTF-8" standalone="no"?>
<svg
   xmlns:dc="http://purl.org/dc/elements/1.1/"
   xmlns:cc="http://creativecommons.org/ns#"
   xmlns:rdf="http://www.w3.org/1999/02/22-rdf-syntax-ns#"
   xmlns:svg="http://www.w3.org/2000/svg"
   xmlns="http://www.w3.org/2000/svg"
   xmlns:xlink="http://www.w3.org/1999/xlink"
   xmlns:sodipodi="http://sodipodi.sourceforge.net/DTD/sodipodi-0.dtd"
   xmlns:inkscape="http://www.inkscape.org/namespaces/inkscape"
   width="100mm"
   height="100mm"
   viewBox="0 0 100 100"
   version="1.1"
   id="svg8"
   inkscape:version="1.0.2 (1.0.2+r75+1)"
   sodipodi:docname="Lesbian Duck.svg"
   inkscape:export-filename="/media/villanelle/Fred7/code/DuckMod/Lesbian Duck.png"
   inkscape:export-xdpi="1040.384"
   inkscape:export-ydpi="1040.384">
  <defs
     id="defs2">
    <linearGradient
       inkscape:collect="always"
       id="linearGradient1496-3">
      <stop
         style="stop-color:#ff9a56;stop-opacity:1"
         offset="0"
         id="stop1492" />
      <stop
         style="stop-color:#d362a4;stop-opacity:1"
         offset="1"
         id="stop1494" />
    </linearGradient>
    <linearGradient
       inkscape:collect="always"
       xlink:href="#linearGradient1496-3"
       id="linearGradient1498"
       x1="289.76904"
       y1="196.4964"
       x2="436.70599"
       y2="289.13"
       gradientUnits="userSpaceOnUse" />
    <linearGradient
       inkscape:collect="always"
       xlink:href="#linearGradient1496-3"
       id="linearGradient1572"
       gradientUnits="userSpaceOnUse"
       x1="75.292"
       y1="130.95686"
       x2="394.54099"
       y2="375.01816" />
  </defs>
  <sodipodi:namedview
     id="base"
     pagecolor="#ffffff"
     bordercolor="#666666"
     borderopacity="1.0"
     inkscape:pageopacity="0.0"
     inkscape:pageshadow="2"
     inkscape:zoom="0.98518249"
     inkscape:cx="181.27501"
     inkscape:cy="108.05353"
     inkscape:document-units="mm"
     inkscape:current-layer="g903"
     inkscape:document-rotation="0"
     showgrid="false"
     inkscape:pagecheckerboard="true"
     inkscape:window-width="1452"
     inkscape:window-height="773"
     inkscape:window-x="50"
     inkscape:window-y="241"
     inkscape:window-maximized="0" />
  <metadata
     id="metadata5">
    <rdf:RDF>
      <cc:Work
         rdf:about="">
        <dc:format>image/svg+xml</dc:format>
        <dc:type
           rdf:resource="http://purl.org/dc/dcmitype/StillImage" />
        <dc:title></dc:title>
      </cc:Work>
    </rdf:RDF>
  </metadata>
  <g
     inkscape:label="Layer 1"
     inkscape:groupmode="layer"
     id="layer1">
    <g
       id="g903"
       transform="matrix(0.19763783,0,0,0.19763783,-0.59528515,0)">
      <g
         id="g1556"
         style="fill-opacity:1;fill:url(#linearGradient1572)">
        <path
           style="fill:url(#linearGradient1572);fill-opacity:1.0;stroke-width:0.9941"
           d="m 268.647,386.92242 c -46.258,-45.71374 -60.835,-101.1952 -60.835,-101.1952 h 6.024 222.871 60.235 c 0,65.24719 -30.236,123.34252 -77.588,161.55854 l -0.718,-0.83704 c -69.506,9.9e-4 -117.578,-27.37903 -149.989,-59.5263 z"
           id="path833" />
        <path
           style="fill:url(#linearGradient1572);fill-opacity:1.0;stroke-width:0.9941"
           d="m 466.824,154.76936 c 0,0 9.035,92.26651 -30.118,130.95885 H 207.812 v -5.95312 z"
           id="path835" />
        <path
           style="fill:url(#linearGradient1572);fill-opacity:1.0;stroke-width:0.9941"
           d="m 268.647,386.92242 c 32.411,32.14628 80.483,59.5263 149.988,59.5263 l 0.718,0.83704 c -36.377,29.28731 -82.636,46.784 -133.236,46.784 -116.494,0 -210.824,-93.22015 -210.824,-208.34353 V 183.93809 c -2.047,0.24409 -3.977,0.59294 -6.024,0.59294 -30,0 -54.212,-23.92713 -54.212,-53.57416 H 75.292 V 77.384682 c 0,-36.192108 29.636,-65.479422 66.259,-65.479422 36.623,0 66.259,29.287314 66.259,65.479422 V 285.72821 c 0.002,-9.9e-4 14.579,55.48047 60.837,101.19421 z"
           id="path837" />
      </g>
      <g
         id="g843"
         transform="scale(1,0.98823439)">
	<path
   style="fill:#231f20"
   d="m 496.941,277.082 h -36.687 c 25.383,-46.987 18.896,-118.153 18.56,-121.631 -0.379,-3.932 -2.662,-7.426 -6.109,-9.355 -3.445,-1.929 -7.62,-2.043 -11.169,-0.311 L 219.859,263.815 V 78.306 C 219.859,35.128 184.731,0 141.553,0 98.375,0 63.247,35.128 63.247,78.306 v 42.165 H 15.059 c -6.654,0 -12.047,5.395 -12.047,12.047 0,34.506 26.511,62.935 60.235,65.987 v 90.625 c 0,59.561 23.175,115.535 65.254,157.615 42.082,42.081 98.057,65.255 157.617,65.255 51.952,0 100.654,-17.306 140.855,-50.058 52.122,-42.565 82.015,-105.553 82.015,-172.813 0,-6.653 -5.394,-12.047 -12.047,-12.047 z m -65.56,0 H 247.597 L 455.716,175.443 c 0.405,29.651 -3.649,76.927 -24.335,101.639 z M 145.539,429.708 C 108.009,392.179 87.341,342.254 87.341,289.13 v -103 c 0,-3.447 -1.476,-6.728 -4.055,-9.014 -2.215,-1.965 -5.063,-3.033 -7.991,-3.033 -0.479,0 -5.297,0.6 -6.024,0.6 -19.064,0 -35.215,-12.72 -40.412,-30.118 h 46.434 c 6.654,0 12.047,-5.395 12.047,-12.047 V 78.306 c 0,-29.892 24.319,-54.212 54.212,-54.212 29.893,0 54.212,24.319 54.212,54.212 V 289.13 c 0,1.046 0.147,2.056 0.399,3.024 l -0.012,0.004 c 0.629,2.423 15.953,59.867 63.961,107.877 34.463,34.588 76.39,55.233 124.964,61.625 -29.904,17.243 -63.584,26.247 -98.959,26.247 -53.123,-10e-4 -103.049,-20.669 -140.578,-58.199 z m 270.464,9.982 C 372.14,439.224 333.66,427.104 301.191,403.577 h 93.35 V 379.483 H 273.727 c -9.399,-9.859 -17.349,-20.137 -24.018,-30.118 h 96.644 V 325.271 H 235.516 c -4.779,-9.252 -8.35,-17.545 -10.893,-24.094 h 259.91 c -3.205,53.581 -27.727,103.276 -68.53,138.513 z"
   id="path839" />

	<path
   style="fill:#231f20"
   d="m 123.482,72.282 c -9.964,0 -18.071,8.106 -18.071,18.071 0,9.965 8.106,18.071 18.071,18.071 9.964,0 18.071,-8.106 18.071,-18.071 0,-9.965 -8.107,-18.071 -18.071,-18.071 z"
   id="path841" />

</g>
      <g
         id="g845">
</g>
      <g
         id="g847">
</g>
      <g
         id="g849">
</g>
      <g
         id="g851">
</g>
      <g
         id="g853">
</g>
      <g
         id="g855">
</g>
      <g
         id="g857">
</g>
      <g
         id="g859">
</g>
      <g
         id="g861">
</g>
      <g
         id="g863">
</g>
      <g
         id="g865">
</g>
      <g
         id="g867">
</g>
      <g
         id="g869">
</g>
      <g
         id="g871">
</g>
      <g
         id="g873">
</g>
    </g>
  </g>
</svg>
